<mxfile host="65bd71144e">
    <diagram id="PNMt3UdQ9-GeICi5q9jL" name="Page-1">
        <mxGraphModel dx="690" dy="420" grid="1" gridSize="10" guides="1" tooltips="1" connect="1" arrows="1" fold="1" page="1" pageScale="1" pageWidth="1169" pageHeight="827" math="0" shadow="0">
            <root>
                <mxCell id="0"/>
                <mxCell id="1" parent="0"/>
                <mxCell id="2" value="" style="shape=offPageConnector;whiteSpace=wrap;html=1;rotation=-90;fillColor=#f9f7ed;strokeColor=#36393d;" vertex="1" parent="1">
                    <mxGeometry x="110" y="150" width="80" height="80" as="geometry"/>
                </mxCell>
                <mxCell id="3" value="문항작성" style="text;html=1;align=center;verticalAlign=middle;whiteSpace=wrap;rounded=0;fontStyle=1" vertex="1" parent="1">
                    <mxGeometry x="110" y="175" width="60" height="30" as="geometry"/>
                </mxCell>
                <mxCell id="6" value="" style="shape=offPageConnector;whiteSpace=wrap;html=1;rotation=-90;fillColor=#f9f7ed;strokeColor=#36393d;" vertex="1" parent="1">
                    <mxGeometry x="210" y="150" width="80" height="80" as="geometry"/>
                </mxCell>
                <mxCell id="7" value="표본 선정" style="text;html=1;align=center;verticalAlign=middle;whiteSpace=wrap;rounded=0;fontStyle=1" vertex="1" parent="1">
                    <mxGeometry x="210" y="175" width="60" height="30" as="geometry"/>
                </mxCell>
                <mxCell id="8" value="" style="shape=offPageConnector;whiteSpace=wrap;html=1;rotation=-90;fillColor=#f9f7ed;strokeColor=#36393d;" vertex="1" parent="1">
                    <mxGeometry x="310" y="150" width="80" height="80" as="geometry"/>
                </mxCell>
                <mxCell id="9" value="설문 시행" style="text;html=1;align=center;verticalAlign=middle;whiteSpace=wrap;rounded=0;fontStyle=1" vertex="1" parent="1">
                    <mxGeometry x="310" y="175" width="60" height="30" as="geometry"/>
                </mxCell>
                <mxCell id="10" value="" style="shape=offPageConnector;whiteSpace=wrap;html=1;rotation=-90;fillColor=#f9f7ed;strokeColor=#36393d;" vertex="1" parent="1">
                    <mxGeometry x="410" y="150" width="80" height="80" as="geometry"/>
                </mxCell>
                <mxCell id="11" value="설문 결과&amp;nbsp;&lt;br&gt;정리 및 분석" style="text;html=1;align=center;verticalAlign=middle;whiteSpace=wrap;rounded=0;fontStyle=1" vertex="1" parent="1">
                    <mxGeometry x="410" y="175" width="80" height="30" as="geometry"/>
                </mxCell>
            </root>
        </mxGraphModel>
    </diagram>
</mxfile>